<svg xmlns="http://www.w3.org/2000/svg" width="53" height="48" viewBox="0 0 53 48">
    <g fill="none" fill-rule="evenodd">
        <g fill-rule="nonzero">
            <g>
                <g>
                    <g fill="#FFF" transform="translate(-49 -309) translate(15 281) translate(29 23)">
                        <circle cx="31.5" cy="31.5" r="8.4"/>
                        <path d="M23.625 5.25l-4.804 5.25H10.5c-2.888 0-5.25 2.363-5.25 5.25v31.5c0 2.888 2.362 5.25 5.25 5.25h42c2.888 0 5.25-2.362 5.25-5.25v-31.5c0-2.887-2.362-5.25-5.25-5.25h-8.321l-4.804-5.25h-15.75zM31.5 44.625c-7.245 0-13.125-5.88-13.125-13.125s5.88-13.125 13.125-13.125 13.125 5.88 13.125 13.125-5.88 13.125-13.125 13.125z"/>
                    </g>
                    <path d="M0 0H63V63H0z" transform="translate(-49 -309) translate(15 281) translate(29 23)"/>
                </g>
            </g>
        </g>
    </g>
</svg>
