<svg xmlns="http://www.w3.org/2000/svg" width="184" height="152" viewBox="0 0 184 152">
    <g fill="none" fill-rule="evenodd">
        <g fill="#FF2500" fill-rule="nonzero">
            <path d="M128 290v53.469c1.08-1.299 2.215-2.554 3.405-3.764 5.342-5.433 11.558-9.742 18.65-12.927 7.09-3.186 14.688-4.778 22.792-4.778 11.42 0 21.641 3.044 30.667 9.133 9.025 6.09 15.84 14.005 20.444 23.748 3.5-5.059 7.966-9.087 13.4-12.085 5.433-2.997 11.465-4.496 18.095-4.496 5.894 0 11.42 1.124 16.577 3.372 4.476 1.951 8.467 4.538 11.971 7.76L284 290h14v92h-.004l-.001.269c-.085 5.737-1.235 11.127-3.448 16.171-2.303 5.246-5.388 9.836-9.256 13.77-3.868 3.935-8.38 7.073-13.537 9.415-5.157 2.342-10.683 3.513-16.577 3.513-6.446 0-12.386-1.499-17.82-4.496-5.433-2.998-9.9-7.026-13.399-12.085-4.605 9.93-11.42 17.986-20.444 24.169-9.026 6.183-19.248 9.274-30.667 9.274-8.104 0-15.702-1.592-22.793-4.778-7.091-3.185-13.307-7.54-18.649-13.067-5.341-5.527-9.577-11.944-12.708-19.251-3.01-7.022-4.573-14.39-4.69-22.104L114 382v-92h14zm43.228 42.91c-5.574 0-10.832 1.041-15.777 3.125-4.944 2.084-9.304 4.938-13.08 8.562-3.775 3.625-6.742 7.883-8.9 12.776-2.157 4.893-3.236 10.148-3.236 15.766 0 5.617 1.079 10.963 3.237 16.037 2.157 5.074 5.124 9.514 8.9 13.32 3.775 3.805 8.135 6.795 13.08 8.97 4.944 2.174 10.202 3.261 15.776 3.261 5.394 0 10.518-1.087 15.372-3.262 4.855-2.174 9.08-5.074 12.676-8.698 3.596-3.624 6.472-7.928 8.63-12.911 2.157-4.984 3.326-10.284 3.506-15.902 0-5.799-1.079-11.19-3.237-16.173-2.157-4.984-5.034-9.333-8.63-13.048-3.595-3.715-7.82-6.614-12.675-8.698-4.854-2.084-10.068-3.126-15.642-3.126zm82.267 13.635c-3.23 0-6.279.696-9.15 2.087-2.87 1.39-5.336 3.328-7.4 5.812-2.062 2.484-3.677 5.415-4.843 8.793-1.166 3.378-1.75 6.955-1.75 10.73 0 7.75 2.199 14.208 6.594 19.374 4.395 5.167 9.911 7.75 16.549 7.75 3.408 0 6.682-.696 9.822-2.087 3.14-1.39 5.875-3.278 8.207-5.663 2.332-2.384 4.171-5.265 5.517-8.644 1.345-3.378 2.018-6.954 2.018-10.73 0-3.775-.673-7.352-2.018-10.73-1.346-3.378-3.185-6.309-5.517-8.793-2.332-2.484-5.068-4.421-8.207-5.812-3.14-1.391-6.414-2.087-9.822-2.087z" transform="translate(-114 -290)"/>
        </g>
    </g>
</svg>
