<svg xmlns="http://www.w3.org/2000/svg" width="90" height="75" viewBox="0 0 90 75">
    <g fill="none" fill-rule="evenodd">
        <g fill="#FFF" fill-rule="nonzero">
            <path d="M113 20c2.21 0 4 1.79 4 4v42c0 .294-.032.582-.092.858-.202 2.23-.734 4.351-1.597 6.362-1.126 2.623-2.635 4.918-4.527 6.885-1.892 1.968-4.1 3.537-6.622 4.708-2.522 1.17-5.225 1.756-8.108 1.756-3.153 0-6.058-.75-8.716-2.248-2.658-1.499-4.842-3.513-6.554-6.042-2.252 4.965-5.586 8.993-10 12.084-4.415 3.091-9.415 4.637-15 4.637-3.964 0-7.68-.796-11.149-2.389-3.468-1.592-6.509-3.77-9.121-6.534-2.613-2.763-4.685-5.972-6.217-9.625-1.317-3.142-2.068-6.423-2.252-9.842-.03-.2-.045-.403-.045-.61V24c0-2.21 1.79-4 4-4s4 1.79 4 4v20.4c.169-.184.34-.367.514-.548 2.612-2.716 5.653-4.87 9.121-6.463C48.104 35.796 51.82 35 55.784 35c5.585 0 10.585 1.522 15 4.567 4.414 3.044 7.748 7.002 10 11.873 1.712-2.529 3.896-4.543 6.554-6.042 2.658-1.499 5.608-2.248 8.851-2.248 2.883 0 5.586.562 8.108 1.686 1.714.764 3.282 1.722 4.704 2.874L109 24c0-2.21 1.79-4 4-4zM54.992 40.455c-2.726 0-5.299.52-7.717 1.563-2.418 1.042-4.55 2.469-6.398 4.28-1.847 1.813-3.298 3.942-4.353 6.388-.851 1.974-1.36 4.066-1.524 6.275v3.215c.164 2.226.672 4.363 1.524 6.412 1.055 2.537 2.506 4.757 4.353 6.66 1.847 1.902 3.98 3.397 6.398 4.485 2.418 1.087 4.99 1.63 7.717 1.63 2.638 0 5.145-.543 7.519-1.63 2.374-1.088 4.441-2.537 6.2-4.35 1.759-1.812 3.166-3.963 4.221-6.455 1.055-2.492 1.627-5.142 1.715-7.951 0-2.9-.528-5.595-1.583-8.087-1.055-2.491-2.462-4.666-4.221-6.523-1.759-1.858-3.826-3.307-6.2-4.35-2.374-1.041-4.925-1.562-7.651-1.562zm40.24 6.818c-1.58 0-3.072.347-4.476 1.043-1.404.695-2.61 1.664-3.62 2.906-1.009 1.242-1.798 2.707-2.369 4.396-.57 1.69-.855 3.478-.855 5.366 0 3.874 1.075 7.103 3.224 9.687 2.15 2.583 4.849 3.874 8.095 3.874 1.667 0 3.269-.347 4.804-1.043 1.536-.695 2.874-1.64 4.015-2.831 1.14-1.193 2.04-2.633 2.698-4.322.658-1.69.987-3.478.987-5.365 0-1.888-.329-3.676-.987-5.366-.658-1.689-1.557-3.154-2.698-4.396-1.14-1.242-2.479-2.21-4.015-2.906-1.535-.696-3.137-1.043-4.804-1.043z" transform="translate(-27 -20)"/>
        </g>
    </g>
</svg>
