<svg xmlns="http://www.w3.org/2000/svg" width="141" height="116" viewBox="0 0 141 116">
    <g fill="none" fill-rule="evenodd">
        <g fill="#FFF" fill-rule="nonzero">
            <path d="M270.342 40c3.038 0 5.5 2.462 5.5 5.5v63c0 .11-.003.218-.01.325.007.283.01.567.01.852 0 4.596-.876 8.905-2.628 12.927-1.751 4.022-4.099 7.541-7.042 10.558-2.943 3.016-6.376 5.422-10.3 7.217-3.924 1.796-8.128 2.694-12.612 2.694-4.905 0-9.425-1.15-13.559-3.448-4.134-2.298-7.533-5.386-10.195-9.264-3.504 7.612-8.689 13.789-15.556 18.529-6.867 4.74-14.644 7.11-23.333 7.11-6.166 0-11.947-1.22-17.342-3.663-5.396-2.442-10.126-5.781-14.19-10.018-4.064-4.238-7.287-9.157-9.67-14.76-2.262-5.32-3.45-10.899-3.564-16.737-.006-.107-.009-.214-.009-.322v-65c0-3.038 2.463-5.5 5.5-5.5 3.038 0 5.5 2.462 5.5 5.5v34.543c.717-.848 1.465-1.671 2.243-2.47 4.064-4.165 8.794-7.468 14.19-9.91C168.67 65.22 174.45 64 180.617 64c8.689 0 16.466 2.334 23.333 7.002 6.867 4.669 12.052 10.737 15.556 18.206 2.662-3.878 6.06-6.966 10.195-9.264 4.134-2.298 8.724-3.448 13.769-3.448 4.484 0 8.688.862 12.612 2.586 3.26 1.431 6.18 3.309 8.762 5.632l-.002-39.214c0-3.038 2.463-5.5 5.5-5.5zm-90.957 32.364c-4.24 0-8.242.798-12.004 2.396-3.762 1.598-7.08 3.786-9.952 6.565-2.873 2.778-5.13 6.043-6.772 9.794-1.641 3.751-2.462 7.78-2.462 12.087 0 4.307.82 8.406 2.462 12.296 1.642 3.89 3.9 7.294 6.772 10.211 2.873 2.918 6.19 5.21 9.952 6.877 3.762 1.667 7.763 2.5 12.004 2.5 4.104 0 8.003-.833 11.697-2.5 3.693-1.667 6.908-3.89 9.644-6.669 2.736-2.778 4.925-6.078 6.566-9.898 1.642-3.821 2.531-7.885 2.668-12.192 0-4.445-.821-8.578-2.463-12.4-1.641-3.82-3.83-7.154-6.566-10.002-2.736-2.848-5.95-5.071-9.644-6.669-3.694-1.598-7.661-2.396-11.902-2.396zm62.595 10.454c-2.457 0-4.778.533-6.962 1.6-2.184 1.066-4.06 2.552-5.63 4.456-1.57 1.904-2.798 4.151-3.686 6.741-.887 2.59-1.33 5.332-1.33 8.227 0 5.94 1.672 10.892 5.016 14.853 3.344 3.96 7.541 5.941 12.592 5.941 2.593 0 5.084-.533 7.473-1.6 2.388-1.066 4.47-2.513 6.244-4.341 1.775-1.828 3.174-4.037 4.198-6.627 1.023-2.59 1.535-5.332 1.535-8.226 0-2.895-.512-5.637-1.535-8.227-1.024-2.59-2.423-4.837-4.198-6.741-1.774-1.904-3.856-3.39-6.244-4.456-2.389-1.067-4.88-1.6-7.473-1.6z" transform="translate(-135 -40)"/>
        </g>
    </g>
</svg>
